# xmcd CD database file generated by Grip 3.2.0
# 
# Track frame offsets:
#       150
#       28755
#       57325
#       77712
#       88887
#       104707
#       129712
#       165420
#       184712
#       204982
#       228370
#       253322
#       268585
# 
# Disc length: 3859 seconds
# 
# Revision: 2
# Processed by: cddbd v1.5.2PL0 Copyright (c) Steve Scherf et al.
# Submitted via: Grip 3.2.0
# 
DISCID=b60f110d
DTITLE=Nightmares on Wax - Carboot Soul
DYEAR=2003
DGENRE=Trip-Hop
TTITLE0=Les Nuits
TTITLE1=Morse
TTITLE2=Ethnic Majority
TTITLE3=Jorgé
TTITLE4=Finer
TTITLE5=Ease Jimi
TTITLE6=Argha Noah
TTITLE7=Fire In The Middle
TTITLE8=Survival
TTITLE9=Capumcap
TTITLE10=Les Nuits (DJ Spinna Mix)
TTITLE11=Finer (Paul Nice Mix)
TTITLE12=Burn Me Slo (feat O.C)
EXTD=
EXTT0=
EXTT1=
EXTT2=
EXTT3=
EXTT4=
EXTT5=
EXTT6=
EXTT7=
EXTT8=
EXTT9=
EXTT10=
EXTT11=
EXTT12=
PLAYORDER=
